# xmcd
#
# Track frame offsets: 
#        150
#        32590
#        49635
#        62867
#        78487
#        94280
#        112455
#        128412
#        145612
#        157075
#        171875
#        185497
#        201365
#        228910
#
# Disc length: 3419 seconds
#
# Revision: 3
# Processed by: cddbd v1.5.1PL0 Copyright (c) Steve Scherf et al.
# Submitted via: ExactAudioCopy v0.90b4
#
DISCID=c30d590e
DTITLE=Various Artist - Bailão de Peão 3
DYEAR=1999
DGENRE=Country
TTITLE0=Chitãozinho E Xororó - Pura Emocão
TTITLE1=Nalva Aguiar - Xonado Eu Tô
TTITLE2=Rony Motta E Juliano Cesar - Não Me Abandone
TTITLE3=Adalbert E Adriano - Silhueta
TTITLE4=Rio Negro E Solimões - Rei Da Festa
TTITLE5=Roberta Miranda - A Mulher Em Mim
TTITLE6=Jão E Jefferson - O Carro E A Faculdade
TTITLE7=Sandy E Junior - Little Cowboy
TTITLE8=Teodoro E Sampaio - Conta Pra Ela
TTITLE9=Chitãozinho E Xororó - Chico Mineiro
TTITLE10=Remix Sertanejo - Festa De Rodeio
TTITLE11=Paulino Levi - Dança Da Vaquejada
TTITLE12=Luca Ferreira - Herói De Rodeio
TTITLE13=Chitãozinho E Xororó - Nossa Senhora
EXTD=
EXTT0=Chit ozinho and Xoror \n
EXTT1=Nalva Aguiar\n
EXTT2=Rony Motta e Juliano C sar\n
EXTT3=Abalberto e Adriano\n
EXTT4=Rio Negro and Solim es\n
EXTT5=Roberta Miranda\n
EXTT6=J d e Jefferson\n
EXTT7=Sandy and J nior\n
EXTT8=Teodoro and Sampaio\n
EXTT9=Chit ozinho and Xoror \n
EXTT10=Remix Sertanejo\n
EXTT11=Paulinho Levi\n
EXTT12=Luca Ferrera\n
EXTT13=Chit ozinho and Xoror \n
PLAYORDER=
